<svg width="326" height="27" viewBox="0 0 326 27" fill="none" xmlns="http://www.w3.org/2000/svg">
<path d="M13.865 26V2.78H23.513V0.799998H0.941008V2.78H10.589V26H13.865ZM31.7927 0.799998V26H35.0687V14.876H36.6527C37.3247 14.876 37.8767 14.936 38.3087 15.056C38.7647 15.176 39.1727 15.38 39.5327 15.668C39.8927 15.956 40.2287 16.328 40.5407 16.784C40.8527 17.24 41.2247 17.804 41.6567 18.476L44.5007 22.688C44.8607 23.24 45.2087 23.744 45.5447 24.2C45.9047 24.656 46.2887 25.052 46.6967 25.388C47.1047 25.7 47.5607 25.952 48.0647 26.144C48.5927 26.336 49.2167 26.432 49.9367 26.432C50.4647 26.432 50.8967 26.408 51.2327 26.36C51.5687 26.312 51.9047 26.192 52.2407 26V24.668C52.1207 24.692 52.0007 24.716 51.8807 24.74C51.7607 24.74 51.6407 24.74 51.5207 24.74C51.0167 24.74 50.5727 24.668 50.1887 24.524C49.8047 24.38 49.4447 24.176 49.1087 23.912C48.7727 23.624 48.4487 23.288 48.1367 22.904C47.8247 22.496 47.5007 22.04 47.1647 21.536C46.1567 20.072 45.3767 18.908 44.8247 18.044C44.2727 17.156 43.8287 16.472 43.4927 15.992C43.1807 15.512 42.9167 15.164 42.7007 14.948C42.5087 14.732 42.2687 14.552 41.9807 14.408L41.6207 14.228V14.084C42.7727 14.012 43.7567 13.76 44.5727 13.328C45.4127 12.896 46.0967 12.356 46.6247 11.708C47.1527 11.06 47.5367 10.364 47.7767 9.62C48.0167 8.852 48.1367 8.108 48.1367 7.388C48.1367 6.74 48.0047 6.032 47.7407 5.264C47.5007 4.496 47.0687 3.788 46.4447 3.14C45.8447 2.468 45.0167 1.916 43.9607 1.484C42.9047 1.028 41.5727 0.799998 39.9647 0.799998H31.7927ZM35.0687 2.384H38.7047C39.6167 2.384 40.4327 2.516 41.1527 2.78C41.8967 3.044 42.5327 3.416 43.0607 3.896C43.5887 4.352 43.9847 4.904 44.2487 5.552C44.5367 6.2 44.6807 6.908 44.6807 7.676C44.6807 8.324 44.5487 8.984 44.2847 9.656C44.0447 10.304 43.6727 10.904 43.1687 11.456C42.6647 11.984 42.0407 12.416 41.2967 12.752C40.5767 13.088 39.7367 13.256 38.7767 13.256H35.0687V2.384ZM60.8726 0.799998V26H77.1446V24.02H64.1486V13.472H75.3086V11.816H64.1486V2.78H77.1446V0.799998H60.8726ZM85.7688 26V0.799998H89.0448V24.02H102.041V26H85.7688ZM110.665 26V0.799998H113.941V24.02H126.937V26H110.665ZM133.041 13.4C133.041 14.744 133.293 16.184 133.797 17.72C134.325 19.232 135.141 20.636 136.245 21.932C137.349 23.228 138.753 24.308 140.457 25.172C142.161 26.012 144.201 26.432 146.577 26.432C148.185 26.432 149.637 26.24 150.933 25.856C152.253 25.448 153.429 24.908 154.461 24.236C155.517 23.564 156.429 22.796 157.197 21.932C157.965 21.044 158.589 20.12 159.069 19.16C159.573 18.176 159.945 17.192 160.185 16.208C160.449 15.224 160.581 14.288 160.581 13.4C160.581 12.056 160.305 10.628 159.753 9.116C159.201 7.58 158.349 6.164 157.197 4.868C156.045 3.572 154.581 2.504 152.805 1.664C151.053 0.799999 148.977 0.368 146.577 0.368C144.201 0.368 142.161 0.787999 140.457 1.628C138.753 2.468 137.349 3.536 136.245 4.832C135.141 6.104 134.325 7.508 133.797 9.044C133.293 10.58 133.041 12.032 133.041 13.4ZM136.569 13.4C136.569 11.72 136.821 10.184 137.325 8.792C137.853 7.376 138.561 6.164 139.449 5.156C140.361 4.148 141.429 3.368 142.653 2.816C143.877 2.24 145.209 1.952 146.649 1.952C148.065 1.952 149.397 2.24 150.645 2.816C151.917 3.368 153.021 4.148 153.957 5.156C154.917 6.164 155.673 7.376 156.225 8.792C156.777 10.184 157.053 11.72 157.053 13.4C157.053 15.08 156.777 16.628 156.225 18.044C155.673 19.436 154.917 20.636 153.957 21.644C153.021 22.652 151.917 23.444 150.645 24.02C149.397 24.572 148.065 24.848 146.649 24.848C145.209 24.848 143.877 24.572 142.653 24.02C141.429 23.444 140.361 22.652 139.449 21.644C138.561 20.636 137.853 19.436 137.325 18.044C136.821 16.628 136.569 15.08 136.569 13.4ZM206.98 21.356C204.532 23.66 201.628 24.812 198.268 24.812C196.396 24.812 194.74 24.488 193.3 23.84C191.86 23.192 190.66 22.328 189.7 21.248C188.74 20.168 188.008 18.92 187.504 17.504C187.024 16.088 186.784 14.612 186.784 13.076C186.784 11.444 187.036 9.956 187.54 8.612C188.068 7.244 188.8 6.068 189.736 5.084C190.672 4.1 191.776 3.332 193.048 2.78C194.344 2.228 195.748 1.952 197.26 1.952C198.292 1.952 199.228 2.072 200.068 2.312C200.932 2.552 201.688 2.864 202.336 3.248C203.008 3.632 203.548 4.076 203.956 4.58C204.388 5.06 204.688 5.552 204.856 6.056H207.52C207.16 5.24 206.692 4.484 206.116 3.788C205.564 3.092 204.868 2.492 204.028 1.988C203.188 1.484 202.204 1.088 201.076 0.799998C199.948 0.511999 198.664 0.368 197.224 0.368C195.136 0.368 193.228 0.667999 191.5 1.268C189.796 1.868 188.332 2.732 187.108 3.86C185.884 4.964 184.936 6.308 184.264 7.892C183.592 9.452 183.256 11.204 183.256 13.148C183.256 14.828 183.52 16.472 184.048 18.08C184.6 19.664 185.44 21.08 186.568 22.328C187.696 23.552 189.136 24.548 190.888 25.316C192.64 26.06 194.728 26.432 197.152 26.432C198.688 26.432 200.056 26.288 201.256 26C202.48 25.712 203.536 25.364 204.424 24.956C205.336 24.524 206.092 24.068 206.692 23.588C207.292 23.108 207.748 22.688 208.06 22.328L206.98 21.356ZM216.332 26V0.799998H219.608V24.02H232.604V26H216.332ZM238.708 13.4C238.708 14.744 238.96 16.184 239.464 17.72C239.992 19.232 240.808 20.636 241.912 21.932C243.016 23.228 244.42 24.308 246.124 25.172C247.828 26.012 249.868 26.432 252.244 26.432C253.852 26.432 255.304 26.24 256.6 25.856C257.92 25.448 259.096 24.908 260.128 24.236C261.184 23.564 262.096 22.796 262.864 21.932C263.632 21.044 264.256 20.12 264.736 19.16C265.24 18.176 265.612 17.192 265.852 16.208C266.116 15.224 266.248 14.288 266.248 13.4C266.248 12.056 265.972 10.628 265.42 9.116C264.868 7.58 264.016 6.164 262.864 4.868C261.712 3.572 260.248 2.504 258.472 1.664C256.72 0.799999 254.644 0.368 252.244 0.368C249.868 0.368 247.828 0.787999 246.124 1.628C244.42 2.468 243.016 3.536 241.912 4.832C240.808 6.104 239.992 7.508 239.464 9.044C238.96 10.58 238.708 12.032 238.708 13.4ZM242.236 13.4C242.236 11.72 242.488 10.184 242.992 8.792C243.52 7.376 244.228 6.164 245.116 5.156C246.028 4.148 247.096 3.368 248.32 2.816C249.544 2.24 250.876 1.952 252.316 1.952C253.732 1.952 255.064 2.24 256.312 2.816C257.584 3.368 258.688 4.148 259.624 5.156C260.584 6.164 261.34 7.376 261.892 8.792C262.444 10.184 262.72 11.72 262.72 13.4C262.72 15.08 262.444 16.628 261.892 18.044C261.34 19.436 260.584 20.636 259.624 21.644C258.688 22.652 257.584 23.444 256.312 24.02C255.064 24.572 253.732 24.848 252.316 24.848C250.876 24.848 249.544 24.572 248.32 24.02C247.096 23.444 246.028 22.652 245.116 21.644C244.228 20.636 243.52 19.436 242.992 18.044C242.488 16.628 242.236 15.08 242.236 13.4ZM295.921 0.799998V20.06H295.777L275.797 0.368H275.617V26H277.273V6.74H277.417L297.397 26.432H297.577V0.799998H295.921ZM309.443 0.799998V26H325.715V24.02H312.719V13.472H323.879V11.816H312.719V2.78H325.715V0.799998H309.443Z" fill="black"/>
</svg>
